{"asset":{"generator":"3D Builder","version":"2.0"},"scene":0,"scenes":[{"nodes":[0,1]}],"nodes":[{"mesh":0,"matrix":[0.046434011310338974,0,0,0,0,-1.2549833172670333E-7,-1.0527561902999878,0,0,1.0527561902999878,-1.2549833172670333E-7,0,-0.014732053503394127,8.7161255990508835E-9,0.073116153478622437,1]},{"mesh":1,"matrix":[1,0,0,0,0,-1.1920928955078125E-7,-0.99999988079071045,0,0,0.99999988079071045,-1.1920928955078125E-7,0,0.021224310621619225,0.01993899792432785,-0.019936170428991318,1]}],"meshes":[{"primitives":[{"attributes":{"POSITION":0},"mode":4,"indices":1}]},{"primitives":[{"attributes":{"POSITION":2},"mode":4,"indices":3,"material":0}]}],"accessors":[{"bufferView":0,"byteOffset":0,"count":8,"componentType":5126,"type":"VEC3","min":[0,0.042998004704713821,0],"max":[0.039998002350330353,0.082998007535934448,0.039998002350330353]},{"bufferView":1,"byteOffset":0,"count":36,"componentType":5125,"type":"SCALAR"},{"bufferView":2,"byteOffset":0,"count":602,"componentType":5126,"type":"VEC3","min":[-0.019936168566346169,-0.019936170428991318,-0.019938999786973],"max":[0.019936172291636467,0.019936168566346169,0.019938999786973]},{"bufferView":3,"byteOffset":0,"count":3600,"componentType":5125,"type":"SCALAR"}],"materials":[{"name":"Regular","pbrMetallicRoughness":{"baseColorFactor":[0.24620139598846436,0,0.0074990317225456238,1],"metallicFactor":0,"roughnessFactor":1}}],"bufferViews":[{"buffer":0,"byteOffset":0,"byteLength":96,"byteStride":12,"target":34962},{"buffer":0,"byteOffset":96,"byteLength":144,"target":34963},{"buffer":0,"byteOffset":240,"byteLength":7224,"byteStride":12,"target":34962},{"buffer":0,"byteOffset":7464,"byteLength":14400,"target":34963}],"buffers":[{"byteLength":21864,"uri":"glastest.bin"}]}