{
  "accessors": [
    {
      "bufferView": 2,
      "componentType": 5126,
      "count": 5,
      "max": [
        58.661418914794922,
        -1.3287400007247925,
        60.512199401855469
      ],
      "min": [
        57.480308532714844,
        -2.2145669460296631,
        60.512199401855469
      ],
      "type": "VEC3"
    },
    {
      "bufferView": 2,
      "byteOffset": 60,
      "componentType": 5126,
      "count": 5,
      "max": [
        -2.7558440555616737e-14,
        -1.0450910190691002e-14,
        -1
      ],
      "min": [
        -2.7558440555616737e-14,
        -1.0450910190691002e-14,
        -1
      ],
      "type": "VEC3"
    },
    {
      "bufferView": 0,
      "componentType": 5125,
      "count": 9,
      "max": [
        4
      ],
      "min": [
        0
      ],
      "type": "SCALAR"
    },
    {
      "bufferView": 2,
      "byteOffset": 120,
      "componentType": 5126,
      "count": 1369,
      "max": [
        63.188980102539062,
        4.1338582038879395,
        118.11019897460938
      ],
      "min": [
        3.9370079040527344,
        -2.3622050285339355,
        3.9370079040527344
      ],
      "type": "VEC3"
    },
    {
      "bufferView": 2,
      "byteOffset": 16548,
      "componentType": 5126,
      "count": 1369,
      "max": [
        1,
        1,
        1
      ],
      "min": [
        -1,
        -1,
        -1
      ],
      "type": "VEC3"
    },
    {
      "bufferView": 0,
      "byteOffset": 36,
      "componentType": 5125,
      "count": 3564,
      "max": [
        1368
      ],
      "min": [
        0
      ],
      "type": "SCALAR"
    },
    {
      "bufferView": 2,
      "byteOffset": 32976,
      "componentType": 5126,
      "count": 228,
      "max": [
        62.992130279541016,
        2.9527559280395508,
        118.11019897460938
      ],
      "min": [
        7.8740158081054688,
        -1.1811020374298096,
        3.9370079040527344
      ],
      "type": "VEC3"
    },
    {
      "bufferView": 2,
      "byteOffset": 35712,
      "componentType": 5126,
      "count": 228,
      "max": [
        0.99144488573074341,
        1,
        1
      ],
      "min": [
        -1,
        -1,
        -1
      ],
      "type": "VEC3"
    },
    {
      "bufferView": 0,
      "byteOffset": 14292,
      "componentType": 5125,
      "count": 618,
      "max": [
        227
      ],
      "min": [
        0
      ],
      "type": "SCALAR"
    },
    {
      "bufferView": 2,
      "byteOffset": 38448,
      "componentType": 5126,
      "count": 421,
      "max": [
        63.007869720458984,
        3.9931900501251221,
        63.572231292724609
      ],
      "min": [
        50.787399291992188,
        -2.2215359210968018,
        58.648731231689453
      ],
      "type": "VEC3"
    },
    {
      "bufferView": 2,
      "byteOffset": 43500,
      "componentType": 5126,
      "count": 421,
      "max": [
        1,
        1,
        1
      ],
      "min": [
        -1,
        -1,
        -1
      ],
      "type": "VEC3"
    },
    {
      "bufferView": 0,
      "byteOffset": 16764,
      "componentType": 5125,
      "count": 1008,
      "max": [
        420
      ],
      "min": [
        0
      ],
      "type": "SCALAR"
    },
    {
      "bufferView": 2,
      "byteOffset": 48552,
      "componentType": 5126,
      "count": 442,
      "max": [
        63.182540893554688,
        2.9527559280395508,
        118.11019897460938
      ],
      "min": [
        3.9370079040527344,
        -1.1811020374298096,
        3.9370079040527344
      ],
      "type": "VEC3"
    },
    {
      "bufferView": 2,
      "byteOffset": 53856,
      "componentType": 5126,
      "count": 442,
      "max": [
        1,
        1,
        1
      ],
      "min": [
        -1,
        -1,
        -1
      ],
      "type": "VEC3"
    },
    {
      "bufferView": 0,
      "byteOffset": 20796,
      "componentType": 5125,
      "count": 1284,
      "max": [
        441
      ],
      "min": [
        0
      ],
      "type": "SCALAR"
    },
    {
      "bufferView": 2,
      "byteOffset": 59160,
      "componentType": 5126,
      "count": 148,
      "max": [
        63.188980102539062,
        1.377953052520752,
        62.992141723632812
      ],
      "min": [
        62.992130279541016,
        0.59055119752883911,
        59.203811645507812
      ],
      "type": "VEC3"
    },
    {
      "bufferView": 2,
      "byteOffset": 60936,
      "componentType": 5126,
      "count": 148,
      "max": [
        1,
        1,
        1
      ],
      "min": [
        -1,
        -1,
        -1
      ],
      "type": "VEC3"
    },
    {
      "bufferView": 0,
      "byteOffset": 25932,
      "componentType": 5125,
      "count": 372,
      "max": [
        147
      ],
      "min": [
        0
      ],
      "type": "SCALAR"
    },
    {
      "bufferView": 2,
      "byteOffset": 62712,
      "componentType": 5126,
      "count": 214,
      "max": [
        62.992130279541016,
        4.1338582038879395,
        63.628410339355469
      ],
      "min": [
        57.283458709716797,
        -2.3622050285339355,
        58.609359741210938
      ],
      "type": "VEC3"
    },
    {
      "bufferView": 2,
      "byteOffset": 65280,
      "componentType": 5126,
      "count": 214,
      "max": [
        0.86602538824081421,
        1,
        1
      ],
      "min": [
        -1,
        -1,
        -1
      ],
      "type": "VEC3"
    },
    {
      "bufferView": 0,
      "byteOffset": 27420,
      "componentType": 5125,
      "count": 558,
      "max": [
        213
      ],
      "min": [
        0
      ],
      "type": "SCALAR"
    },
    {
      "bufferView": 2,
      "byteOffset": 67848,
      "componentType": 5126,
      "count": 183,
      "max": [
        62.992130279541016,
        1.6268700361251831,
        118.11019897460938
      ],
      "min": [
        3.9370079040527344,
        -5.1958440940589115e-14,
        3.9370079040527344
      ],
      "type": "VEC3"
    },
    {
      "bufferView": 2,
      "byteOffset": 70044,
      "componentType": 5126,
      "count": 183,
      "max": [
        -5.0132740170376786e-17,
        1,
        1.897664063651092e-29
      ],
      "min": [
        -1,
        -3.2812338593814563e-14,
        -3.1116870356852444e-17
      ],
      "type": "VEC3"
    },
    {
      "bufferView": 0,
      "byteOffset": 29652,
      "componentType": 5125,
      "count": 567,
      "max": [
        182
      ],
      "min": [
        0
      ],
      "type": "SCALAR"
    },
    {
      "bufferView": 2,
      "byteOffset": 72240,
      "componentType": 5126,
      "count": 51,
      "max": [
        62.992130279541016,
        1.9685039520263672,
        118.11019897460938
      ],
      "min": [
        3.9370079040527344,
        -4.3076649967324285e-14,
        3.9370079040527344
      ],
      "type": "VEC3"
    },
    {
      "bufferView": 2,
      "byteOffset": 72852,
      "componentType": 5126,
      "count": 51,
      "max": [
        -6.0865611773810763e-16,
        1,
        9.4686873969231262e-15
      ],
      "min": [
        -1.5724590683371953e-14,
        -1,
        -4.5566429623911889e-15
      ],
      "type": "VEC3"
    },
    {
      "bufferView": 3,
      "componentType": 5126,
      "count": 51,
      "max": [
        1,
        -6.0864955323276641e-16,
        0.00010416298755444586,
        1
      ],
      "min": [
        -1,
        -1.5724626258755738e-14,
        -8.0410638474859297e-05,
        1
      ],
      "type": "VEC4"
    },
    {
      "bufferView": 1,
      "componentType": 5126,
      "count": 51,
      "max": [
        1.1665209531784058,
        2.1872270107269287
      ],
      "min": [
        -1.0936130285263062,
        0.072907552123069763
      ],
      "type": "VEC2"
    },
    {
      "bufferView": 0,
      "byteOffset": 31920,
      "componentType": 5125,
      "count": 135,
      "max": [
        50
      ],
      "min": [
        0
      ],
      "type": "SCALAR"
    },
    {
      "bufferView": 2,
      "byteOffset": 73464,
      "componentType": 5126,
      "count": 34,
      "max": [
        59.055118560791016,
        1.9685039520263672,
        114.17320251464844
      ],
      "min": [
        7.8740158081054688,
        -5.1958440940589115e-14,
        7.8740158081054688
      ],
      "type": "VEC3"
    },
    {
      "bufferView": 2,
      "byteOffset": 73872,
      "componentType": 5126,
      "count": 34,
      "max": [
        1.0754690510410758e-15,
        1,
        9.870461699464561e-18
      ],
      "min": [
        -6.2061399949185181e-16,
        -1,
        4.0103850222551168e-18
      ],
      "type": "VEC3"
    },
    {
      "bufferView": 3,
      "byteOffset": 816,
      "componentType": 5126,
      "count": 34,
      "max": [
        1,
        1.0754691569201942e-15,
        4.7905232349876314e-05,
        1
      ],
      "min": [
        -1,
        -6.2061426418964782e-16,
        -5.8143476053373888e-05,
        1
      ],
      "type": "VEC4"
    },
    {
      "bufferView": 1,
      "byteOffset": 408,
      "componentType": 5126,
      "count": 34,
      "max": [
        7.381889820098877,
        14.271650314331055
      ],
      "min": [
        -7.381889820098877,
        0.98425197601318359
      ],
      "type": "VEC2"
    },
    {
      "bufferView": 0,
      "byteOffset": 32460,
      "componentType": 5125,
      "count": 90,
      "max": [
        33
      ],
      "min": [
        0
      ],
      "type": "SCALAR"
    },
    {
      "bufferView": 2,
      "byteOffset": 74280,
      "componentType": 5126,
      "count": 231,
      "max": [
        63.182540893554688,
        1.1682310104370117,
        63.608718872070312
      ],
      "min": [
        62.992130279541016,
        0.78740161657333374,
        58.629051208496094
      ],
      "type": "VEC3"
    },
    {
      "bufferView": 2,
      "byteOffset": 77052,
      "componentType": 5126,
      "count": 231,
      "max": [
        1,
        0.99660199880599976,
        1
      ],
      "min": [
        -4.5241539464377367e-13,
        -1,
        -1
      ],
      "type": "VEC3"
    },
    {
      "bufferView": 0,
      "byteOffset": 32820,
      "componentType": 5125,
      "count": 537,
      "max": [
        230
      ],
      "min": [
        0
      ],
      "type": "SCALAR"
    },
    {
      "bufferView": 2,
      "byteOffset": 79824,
      "componentType": 5126,
      "count": 96,
      "max": [
        62.992130279541016,
        1.1023620367050171,
        63.628410339355469
      ],
      "min": [
        62.992130279541016,
        0.866141676902771,
        58.609359741210938
      ],
      "type": "VEC3"
    },
    {
      "bufferView": 2,
      "byteOffset": 80976,
      "componentType": 5126,
      "count": 96,
      "max": [
        1,
        -9.1866083154219097e-14,
        2.4127599675676304e-27
      ],
      "min": [
        1,
        -9.1866083154219097e-14,
        -2.4146639419106516e-27
      ],
      "type": "VEC3"
    },
    {
      "bufferView": 0,
      "byteOffset": 34968,
      "componentType": 5125,
      "count": 288,
      "max": [
        95
      ],
      "min": [
        0
      ],
      "type": "SCALAR"
    },
    {
      "bufferView": 2,
      "byteOffset": 82128,
      "componentType": 5126,
      "count": 10,
      "max": [
        63.188980102539062,
        3.9912750720977783,
        116.14170074462891
      ],
      "min": [
        3.9238851070404053,
        -2.219620943069458,
        59.203811645507812
      ],
      "type": "VEC3"
    },
    {
      "bufferView": 0,
      "byteOffset": 36120,
      "componentType": 5125,
      "count": 12,
      "max": [
        9
      ],
      "min": [
        0
      ],
      "type": "SCALAR"
    }
  ],
  "asset": {
    "extras": {
      "author": "VoiclessCry (https://sketchfab.com/VoiclessCry)",
      "license": "CC-BY-4.0 (http://creativecommons.org/licenses/by/4.0/)",
      "source": "https://sketchfab.com/models/cf4439704b34469f9176e6e561be2230",
      "title": "Mid Poly Door"
    },
    "generator": "Sketchfab-3.43.1",
    "version": "2.0"
  },
  "bufferViews": [
    {
      "buffer": 0,
      "byteLength": 36168,
      "byteOffset": 0,
      "name": "floatBufferViews",
      "target": 34963
    },
    {
      "buffer": 0,
      "byteLength": 680,
      "byteOffset": 36168,
      "byteStride": 8,
      "name": "floatBufferViews",
      "target": 34962
    },
    {
      "buffer": 0,
      "byteLength": 82248,
      "byteOffset": 36848,
      "byteStride": 12,
      "name": "floatBufferViews",
      "target": 34962
    },
    {
      "buffer": 0,
      "byteLength": 1360,
      "byteOffset": 119096,
      "byteStride": 16,
      "name": "floatBufferViews",
      "target": 34962
    }
  ],
  "buffers": [
    {
      "byteLength": 120456,
      "uri": "scene.bin"
    }
  ],
  "images": [
    {
      "uri": "textures/Metal_Aluminum_Anodized_baseColor.jpeg"
    },
    {
      "uri": "textures/Metal_Rough_baseColor.jpeg"
    },
    {
      "uri": "textures/Metal_Rough_metallicRoughness.png"
    }
  ],
  "materials": [
    {
      "doubleSided": false,
      "name": "material",
      "pbrMetallicRoughness": {
        "baseColorFactor": [
          1,
          1,
          1,
          1
        ],
        "metallicFactor": 0,
        "roughnessFactor": 0.59999999999999998
      }
    },
    {
      "doubleSided": false,
      "name": "0132_LightGray",
      "pbrMetallicRoughness": {
        "baseColorFactor": [
          0.66274500000000003,
          0.66274500000000003,
          0.66274500000000003,
          1
        ],
        "metallicFactor": 0,
        "roughnessFactor": 0.59999999999999998
      }
    },
    {
      "doubleSided": false,
      "name": "Color_M02",
      "pbrMetallicRoughness": {
        "baseColorFactor": [
          0.77647100000000002,
          0.77647100000000002,
          0.77647100000000002,
          1
        ],
        "metallicFactor": 0,
        "roughnessFactor": 0.59999999999999998
      }
    },
    {
      "doubleSided": false,
      "name": "0131_Silver",
      "pbrMetallicRoughness": {
        "baseColorFactor": [
          0.75294099999999997,
          0.75294099999999997,
          0.75294099999999997,
          1
        ],
        "metallicFactor": 0,
        "roughnessFactor": 0.59999999999999998
      }
    },
    {
      "doubleSided": false,
      "name": "0133_Gray",
      "pbrMetallicRoughness": {
        "baseColorFactor": [
          0.50196099999999999,
          0.50196099999999999,
          0.50196099999999999,
          1
        ],
        "metallicFactor": 0,
        "roughnessFactor": 0.59999999999999998
      }
    },
    {
      "doubleSided": false,
      "name": "Color_M04",
      "pbrMetallicRoughness": {
        "baseColorFactor": [
          0.556863,
          0.556863,
          0.556863,
          1
        ],
        "metallicFactor": 0,
        "roughnessFactor": 0.59999999999999998
      }
    },
    {
      "doubleSided": false,
      "name": "Color_M03",
      "pbrMetallicRoughness": {
        "baseColorFactor": [
          0.66666700000000001,
          0.66666700000000001,
          0.66666700000000001,
          1
        ],
        "metallicFactor": 0,
        "roughnessFactor": 0.59999999999999998
      }
    },
    {
      "doubleSided": false,
      "name": "Metal_Aluminum_Anodized",
      "pbrMetallicRoughness": {
        "baseColorFactor": [
          1,
          1,
          1,
          1
        ],
        "baseColorTexture": {
          "index": 0,
          "texCoord": 0
        },
        "metallicFactor": 0,
        "roughnessFactor": 0.59999999999999998
      }
    },
    {
      "doubleSided": false,
      "name": "Color_M01",
      "pbrMetallicRoughness": {
        "baseColorFactor": [
          0.88627400000000001,
          0.88627400000000001,
          0.88627400000000001,
          1
        ],
        "metallicFactor": 0,
        "roughnessFactor": 0.59999999999999998
      }
    },
    {
      "doubleSided": false,
      "name": "Metal_Rough",
      "pbrMetallicRoughness": {
        "baseColorFactor": [
          1,
          1,
          1,
          1
        ],
        "baseColorTexture": {
          "index": 1,
          "texCoord": 0
        },
        "metallicFactor": 0,
        "metallicRoughnessTexture": {
          "index": 2,
          "texCoord": 0
        },
        "roughnessFactor": 1
      }
    },
    {
      "doubleSided": false,
      "name": "0134_DimGray",
      "pbrMetallicRoughness": {
        "baseColorFactor": [
          0.41176499999999999,
          0.41176499999999999,
          0.41176499999999999,
          1
        ],
        "metallicFactor": 0,
        "roughnessFactor": 0.59999999999999998
      }
    },
    {
      "doubleSided": false,
      "name": "0136_Charcoal",
      "pbrMetallicRoughness": {
        "baseColorFactor": [
          0.13725499999999999,
          0.13725499999999999,
          0.13725499999999999,
          1
        ],
        "metallicFactor": 0,
        "roughnessFactor": 0.59999999999999998
      }
    },
    {
      "doubleSided": false,
      "name": "edge_color000255",
      "pbrMetallicRoughness": {
        "baseColorFactor": [
          1,
          1,
          1,
          1
        ],
        "metallicFactor": 0,
        "roughnessFactor": 0.59999999999999998
      }
    }
  ],
  "meshes": [
    {
      "name": "Material3",
      "primitives": [
        {
          "attributes": {
            "NORMAL": 1,
            "POSITION": 0
          },
          "indices": 2,
          "material": 8,
          "mode": 4
        }
      ]
    },
    {
      "name": "Material2",
      "primitives": [
        {
          "attributes": {
            "NORMAL": 4,
            "POSITION": 3
          },
          "indices": 5,
          "material": 0,
          "mode": 4
        }
      ]
    },
    {
      "name": "Material3",
      "primitives": [
        {
          "attributes": {
            "NORMAL": 7,
            "POSITION": 6
          },
          "indices": 8,
          "material": 1,
          "mode": 4
        }
      ]
    },
    {
      "name": "Material3",
      "primitives": [
        {
          "attributes": {
            "NORMAL": 10,
            "POSITION": 9
          },
          "indices": 11,
          "material": 2,
          "mode": 4
        }
      ]
    },
    {
      "name": "Material3",
      "primitives": [
        {
          "attributes": {
            "NORMAL": 13,
            "POSITION": 12
          },
          "indices": 14,
          "material": 3,
          "mode": 4
        }
      ]
    },
    {
      "name": "Material3",
      "primitives": [
        {
          "attributes": {
            "NORMAL": 16,
            "POSITION": 15
          },
          "indices": 17,
          "material": 4,
          "mode": 4
        }
      ]
    },
    {
      "name": "Material3",
      "primitives": [
        {
          "attributes": {
            "NORMAL": 19,
            "POSITION": 18
          },
          "indices": 20,
          "material": 5,
          "mode": 4
        }
      ]
    },
    {
      "name": "Material3",
      "primitives": [
        {
          "attributes": {
            "NORMAL": 22,
            "POSITION": 21
          },
          "indices": 23,
          "material": 6,
          "mode": 4
        }
      ]
    },
    {
      "name": "Material2",
      "primitives": [
        {
          "attributes": {
            "NORMAL": 25,
            "POSITION": 24,
            "TANGENT": 26,
            "TEXCOORD_0": 27
          },
          "indices": 28,
          "material": 7,
          "mode": 4
        }
      ]
    },
    {
      "name": "Material3",
      "primitives": [
        {
          "attributes": {
            "NORMAL": 30,
            "POSITION": 29,
            "TANGENT": 31,
            "TEXCOORD_0": 32
          },
          "indices": 33,
          "material": 9,
          "mode": 4
        }
      ]
    },
    {
      "name": "Material3",
      "primitives": [
        {
          "attributes": {
            "NORMAL": 35,
            "POSITION": 34
          },
          "indices": 36,
          "material": 10,
          "mode": 4
        }
      ]
    },
    {
      "name": "Material3",
      "primitives": [
        {
          "attributes": {
            "NORMAL": 38,
            "POSITION": 37
          },
          "indices": 39,
          "material": 11,
          "mode": 4
        }
      ]
    },
    {
      "name": "Material2",
      "primitives": [
        {
          "attributes": {
            "POSITION": 40
          },
          "indices": 41,
          "material": 12,
          "mode": 1
        }
      ]
    }
  ],
  "nodes": [
    {
      "children": [
        1
      ],
      "name": "RootNode (gltf orientation matrix)",
      "rotation": [
        -0.70710678118654746,
        -0,
        -0,
        0.70710678118654757
      ]
    },
    {
      "children": [
        2
      ],
      "name": "RootNode (model correction matrix)"
    },
    {
      "children": [
        3
      ],
      "name": "Collada visual scene group"
    },
    {
      "children": [
        8,
        9,
        10,
        11,
        12,
        13,
        14,
        15,
        16,
        17,
        18,
        19,
        20,
        4,
        6
      ],
      "name": "SketchUp"
    },
    {
      "children": [
        5
      ],
      "matrix": [
        0.91590749999999999,
        0.40138940000000001,
        -3.4694470000000004e-18,
        0,
        -0.032307950000000002,
        0.07372165,
        0.99675539999999996,
        0,
        0.40008709999999997,
        -0.91293570000000002,
        0.080490279999999997,
        0,
        137.51300000000001,
        -189.88069999999999,
        77.312190000000001,
        1
      ],
      "name": "skp_camera_Last_Saved_SketchUp_View"
    },
    {
      "name": "ID1"
    },
    {
      "children": [
        7
      ],
      "matrix": [
        0.93482330000000002,
        0.35511310000000001,
        0,
        0,
        -0.25332959999999999,
        0.66688170000000002,
        0.70078019999999996,
        0,
        0.2488563,
        -0.65510570000000001,
        0.71337720000000004,
        0,
        85.721159999999998,
        -177.5985,
        249.24420000000001,
        1
      ],
      "name": "skp_camera_Scene_1"
    },
    {
      "name": "ID2"
    },
    {
      "mesh": 0,
      "name": "Material3"
    },
    {
      "mesh": 1,
      "name": "Material2"
    },
    {
      "mesh": 2,
      "name": "Material3"
    },
    {
      "mesh": 3,
      "name": "Material3"
    },
    {
      "mesh": 4,
      "name": "Material3"
    },
    {
      "mesh": 5,
      "name": "Material3"
    },
    {
      "mesh": 6,
      "name": "Material3"
    },
    {
      "mesh": 7,
      "name": "Material3"
    },
    {
      "mesh": 8,
      "name": "Material2"
    },
    {
      "mesh": 9,
      "name": "Material3"
    },
    {
      "mesh": 10,
      "name": "Material3"
    },
    {
      "mesh": 11,
      "name": "Material3"
    },
    {
      "mesh": 12,
      "name": "Material2"
    }
  ],
  "samplers": [
    {
      "magFilter": 9729,
      "minFilter": 9987,
      "wrapS": 10497,
      "wrapT": 10497
    }
  ],
  "scene": 0,
  "scenes": [
    {
      "name": "OSG_Scene",
      "nodes": [
        0
      ]
    }
  ],
  "textures": [
    {
      "sampler": 0,
      "source": 0
    },
    {
      "sampler": 0,
      "source": 1
    },
    {
      "sampler": 0,
      "source": 2
    }
  ]
}

